<?xml version="1.0" encoding="UTF-8" ?>
<!DOCTYPE svg PUBLIC "-//W3C//DTD SVG 1.1//EN" "http://www.w3.org/Graphics/SVG/1.1/DTD/svg11.dtd">
<svg width="274pt" height="78pt" viewBox="0 0 274 78" version="1.1" xmlns="http://www.w3.org/2000/svg">
<path fill="#008fff" d=" M 0.00 0.00 L 274.00 0.00 L 274.00 78.00 L 0.00 78.00 L 0.00 0.00 Z" />
<path fill="#ffffff" d=" M 17.28 14.34 C 19.48 11.35 23.96 13.19 27.13 12.73 C 27.13 14.81 27.14 16.88 27.14 18.96 C 26.27 18.97 24.54 19.01 23.67 19.03 C 23.30 25.53 24.56 32.23 22.76 38.59 C 24.61 45.11 23.26 52.00 23.68 58.68 C 24.54 58.70 26.27 58.72 27.13 58.74 C 27.13 60.81 27.14 62.89 27.14 64.97 C 24.01 64.52 19.85 66.27 17.45 63.66 C 16.54 57.19 17.40 50.52 17.06 43.97 C 17.38 42.29 15.84 41.63 14.66 40.97 C 14.63 39.22 14.62 37.47 14.60 35.72 C 15.16 35.51 16.27 35.10 16.83 34.90 C 17.49 28.06 16.69 21.17 17.28 14.34 Z" />
<path fill="#ffffff" d=" M 41.69 14.64 C 46.04 11.54 52.05 12.84 56.14 15.78 C 55.34 17.70 54.56 19.62 53.79 21.55 C 51.72 20.22 49.21 18.52 46.65 19.67 C 43.69 21.06 43.78 24.80 43.43 27.56 C 46.49 27.50 49.55 27.42 52.61 27.35 C 52.61 29.40 52.61 31.44 52.60 33.49 C 49.58 33.50 46.55 33.50 43.53 33.51 C 43.50 43.34 43.53 53.17 43.52 63.00 C 41.20 63.00 38.89 63.00 36.58 63.00 C 36.56 53.16 36.60 43.33 36.56 33.49 C 35.07 33.50 33.58 33.51 32.09 33.51 C 31.98 31.48 31.92 29.44 31.89 27.40 C 33.43 27.49 34.96 27.59 36.50 27.69 C 36.67 22.97 37.65 17.63 41.69 14.64 Z" />
<path fill="#ffffff" d=" M 164.96 13.36 C 167.28 13.34 169.60 13.34 171.91 13.34 C 171.93 19.34 171.85 25.33 171.86 31.33 C 176.39 27.62 182.59 25.52 188.29 27.75 C 198.03 31.52 201.86 44.36 197.49 53.45 C 194.77 59.76 187.93 64.19 181.00 63.45 C 177.28 63.25 174.09 61.20 171.12 59.18 C 171.24 60.45 171.37 61.73 171.50 63.01 C 169.30 63.00 167.11 62.99 164.92 62.97 C 164.94 46.44 164.85 29.90 164.96 13.36 Z" />
<path fill="#ffffff" d=" M 206.98 13.35 C 209.29 13.34 211.60 13.34 213.92 13.35 C 213.94 16.37 213.94 19.39 213.93 22.42 C 211.59 22.43 209.26 22.43 206.92 22.40 C 206.89 19.38 206.90 16.37 206.98 13.35 Z" />
<path fill="#ffffff" d=" M 246.41 12.72 C 249.52 13.27 254.45 11.17 256.26 14.60 C 257.05 21.37 255.59 28.40 256.99 35.04 C 257.46 35.21 258.40 35.55 258.86 35.71 C 258.86 37.52 258.84 39.32 258.80 41.12 C 257.18 41.44 256.41 42.39 256.47 43.97 C 256.21 50.38 256.78 56.84 256.23 63.23 C 254.29 66.52 249.52 64.42 246.40 64.99 C 246.40 62.90 246.40 60.81 246.41 58.72 C 247.27 58.71 248.99 58.70 249.85 58.69 C 250.21 51.95 249.00 45.05 250.70 38.45 C 249.00 32.13 250.21 25.48 249.86 19.02 C 249.00 19.01 247.26 19.00 246.40 18.99 C 246.40 16.90 246.40 14.81 246.41 12.72 Z" />
<path fill="#ffffff" d=" M 225.36 15.35 C 227.69 15.30 230.03 15.33 232.37 15.46 C 232.26 19.44 232.19 23.43 232.41 27.41 C 234.89 27.34 237.38 27.32 239.87 27.34 C 239.87 29.39 239.88 31.43 239.88 33.48 C 237.34 33.49 234.80 33.49 232.27 33.55 C 232.33 40.03 232.25 46.52 232.29 53.01 C 232.23 54.24 232.47 56.04 234.07 56.14 C 236.48 56.73 238.70 55.24 240.84 54.36 C 241.42 56.40 242.04 58.43 242.68 60.46 C 238.52 62.47 233.36 64.30 228.99 61.88 C 226.49 60.59 225.22 57.75 225.36 55.02 C 225.30 47.85 225.38 40.69 225.34 33.52 C 223.84 33.50 222.34 33.49 220.85 33.47 C 220.83 31.47 220.80 29.47 220.76 27.47 C 222.28 27.40 223.81 27.33 225.33 27.26 C 225.35 23.29 225.34 19.32 225.36 15.35 Z" />
<path fill="#ffffff" d=" M 67.42 27.55 C 76.21 24.72 86.21 30.32 88.93 39.01 C 92.22 47.97 87.63 59.23 78.45 62.46 C 69.94 65.81 59.45 61.29 56.21 52.72 C 51.83 43.15 57.15 30.47 67.42 27.55 Z" />
<path fill="#ffffff" d=" M 100.92 28.83 C 108.02 25.14 117.36 26.70 122.88 32.50 C 121.67 34.08 120.41 35.61 119.13 37.13 C 116.38 34.51 112.84 32.59 108.93 32.84 C 106.41 32.75 103.11 33.60 102.48 36.44 C 102.10 37.82 102.43 39.62 103.95 40.15 C 109.25 42.38 115.43 42.41 120.25 45.81 C 123.42 48.04 123.89 52.45 122.82 55.91 C 121.67 59.45 118.33 61.83 114.86 62.80 C 107.47 64.79 99.26 62.69 93.62 57.53 C 94.75 55.83 95.90 54.14 97.04 52.46 C 101.57 56.28 107.83 59.00 113.71 56.74 C 116.41 55.91 117.83 51.47 114.85 50.08 C 109.33 47.27 102.32 47.78 97.51 43.52 C 93.68 39.07 95.85 31.43 100.92 28.83 Z" />
<path fill="#ffffff" d=" M 134.89 28.85 C 141.98 25.15 151.46 26.64 156.89 32.61 C 155.64 34.12 154.39 35.62 153.13 37.12 C 150.39 34.53 146.88 32.60 142.99 32.84 C 140.46 32.75 137.15 33.57 136.49 36.40 C 136.09 37.78 136.41 39.61 137.95 40.15 C 143.43 42.48 149.99 42.39 154.79 46.26 C 159.25 50.39 157.57 58.53 152.35 61.28 C 144.47 65.61 134.12 63.46 127.62 57.52 C 128.75 55.83 129.89 54.14 131.04 52.46 C 135.41 56.11 141.23 58.78 146.98 57.00 C 149.71 56.50 151.88 52.68 149.55 50.54 C 144.00 47.13 136.50 48.02 131.50 43.51 C 127.70 39.07 129.85 31.46 134.89 28.85 Z" />
<path fill="#ffffff" d=" M 206.97 27.36 C 209.29 27.34 211.60 27.34 213.92 27.34 C 214.03 39.21 213.80 51.08 214.04 62.95 C 211.66 62.99 209.29 63.00 206.92 62.98 C 206.95 51.11 206.84 39.23 206.97 27.36 Z" />
<path fill="#008fff" d=" M 180.41 33.52 C 185.44 32.54 190.23 36.40 191.59 41.10 C 193.59 46.75 190.93 53.80 185.33 56.21 C 181.36 58.06 176.55 56.48 173.65 53.43 C 171.11 50.98 172.13 47.15 171.90 44.01 C 171.08 38.86 175.70 34.50 180.41 33.52 Z" />
<path fill="#008fff" d=" M 68.27 34.30 C 75.32 30.81 83.35 37.74 82.92 45.06 C 83.49 52.27 75.81 59.34 68.72 56.30 C 59.61 52.83 59.54 38.27 68.27 34.30 Z" />
</svg>
