<?xml version="1.0" encoding="utf-8"?>
<!-- Generator: Adobe Illustrator 19.2.1, SVG Export Plug-In . SVG Version: 6.00 Build 0)  -->
<svg version="1.1" id="Layer_1" xmlns="http://www.w3.org/2000/svg" xmlns:xlink="http://www.w3.org/1999/xlink" x="0px" y="0px"
	 viewBox="0 0 444.3 235.1" style="enable-background:new 0 0 444.3 235.1;" xml:space="preserve">
<style type="text/css">
	.st0{fill:#093757;}
</style>
<title>ssh-logo</title>
<circle class="st0" cx="216.7" cy="105.4" r="13.7"/>
<circle class="st0" cx="277.9" cy="105.4" r="13.7"/>
<circle class="st0" cx="339" cy="105.4" r="13.7"/>
<circle class="st0" cx="247.3" cy="74.8" r="13.7"/>
<circle class="st0" cx="308.4" cy="74.8" r="13.7"/>
<circle class="st0" cx="369.5" cy="74.8" r="13.7"/>
<circle class="st0" cx="277.9" cy="44.3" r="13.7"/>
<circle class="st0" cx="339" cy="44.3" r="13.7"/>
<circle class="st0" cx="400.1" cy="44.3" r="13.7"/>
<circle class="st0" cx="430.6" cy="13.7" r="13.7"/>
<path class="st0" d="M13.9,171.1c1.2,0,2.4-0.1,3.5-0.3c1.1-0.1,1.7,0.7,1.7,2.2s-0.3,2.2-1,2.6c-1.7,0.7-3.5,1-5.4,0.9
	c-7.4,0-12.8-2.7-12.8-14.8c0-13,6.2-15.3,12.8-15.3c2,0,4.1,0.2,5.3,0.9c0.7,0.6,1.1,1.5,1,2.4c0,1.3-0.4,2.4-1.7,2.3
	c-1.2-0.2-2.4-0.2-3.6-0.3c-4.5,0-6.3,1.7-6.3,9.9C7.4,168.6,9.2,171.1,13.9,171.1z"/>
<path class="st0" d="M35.3,146.4c8.4,0,12.8,4.3,12.8,14.5c0,12.4-5.2,15.6-12.8,15.6s-12.9-3.2-12.9-14.6S26.7,146.4,35.3,146.4z
	 M35.2,151.6c-4.6,0-5.6,1.6-5.6,9.7c0,8.6,1.5,9.9,5.6,9.9c4.3,0,5.5-1.3,5.5-9.9C40.7,153.1,39.3,151.6,35.2,151.6z"/>
<path class="st0" d="M95.1,174.1c0,1.7-1.7,2.1-3.5,2.1c-1.6,0-3.6-0.3-3.6-2v-16.8c0-4.1-1-5.5-5.2-5.5c-1.1,0-2.2,0.2-3.3,0.4
	c-0.9,0.2-1.4,1.1-1.2,2v19.8c0,1.8-1.7,2.1-3.4,2.1s-3.6-0.3-3.6-2v-18.5c0-2.9-1.6-3.9-4.5-3.9c-1.3-0.1-2.5,0.1-3.8,0.4
	c-0.7,0.3-1.1,1.1-0.9,1.8v20.1c0,1.8-1.7,2.1-3.5,2.1s-3.6-0.3-3.6-2v-23.5c0-2.2,0.5-3,2.3-3.5c3-0.6,6.1-0.9,9.2-0.8
	c2.7,0,5.6,0.2,7.6,1.1c0.2,0.2,0.5,0.2,0.8,0.3c0.3,0,0.7-0.1,1-0.3c2.4-0.7,4.9-1.1,7.4-1.1c8.3,0,11.8,2.1,11.8,8.9L95.1,174.1
	L95.1,174.1z"/>
<path class="st0" d="M142.8,174.1c0,1.7-1.7,2.1-3.5,2.1c-1.6,0-3.6-0.3-3.6-2v-16.8c0-4.1-1-5.5-5.2-5.5c-1.1,0-2.2,0.2-3.3,0.4
	c-0.9,0.2-1.4,1.1-1.2,2v19.8c0,1.8-1.7,2.1-3.4,2.1s-3.6-0.3-3.6-2v-18.5c0-2.9-1.6-3.9-4.5-3.9c-1.3-0.1-2.5,0.1-3.8,0.4
	c-0.7,0.3-1.1,1.1-0.9,1.8v20.1c0,1.8-1.7,2.1-3.5,2.1s-3.6-0.3-3.6-2v-23.5c0-2.2,0.5-3,2.3-3.5c3-0.6,6.1-0.9,9.2-0.8
	c2.7,0,5.6,0.2,7.6,1.1c0.2,0.2,0.5,0.2,0.8,0.3c0.3,0,0.7-0.1,1-0.3c2.4-0.7,4.9-1.1,7.5-1.1c8.3,0,11.9,2.1,11.9,8.9L142.8,174.1
	L142.8,174.1z"/>
<path class="st0" d="M157,165.2c0,4.6,1.4,5.8,5.2,5.8c3.4,0,4.5-0.3,4.5-2.2v-20.2c0-1.6,1.9-2,3.5-2s3.6,0.3,3.6,2v23.7
	c0,2.2-0.6,2.8-2.4,3.3c-2.9,0.6-5.9,0.9-8.9,0.9c-9.8,0-12.6-2.8-12.6-9.2v-18.6c0-1.6,1.8-2,3.5-2s3.6,0.3,3.6,2L157,165.2
	L157,165.2z"/>
<path class="st0" d="M205.4,174.2c0,1.6-1.7,2-3.5,2s-3.6-0.3-3.6-2v-16.8c0-4.6-1.4-5.6-5.2-5.6c-1.2-0.1-2.4,0.1-3.5,0.5
	c-0.9,0.4-0.9,1-0.9,2v19.9c0,1.6-1.9,2-3.5,2s-3.6-0.3-3.6-2v-23.6c0-2.2,0.6-2.9,2.4-3.3c3-0.6,6.1-0.9,9.2-0.9
	c9.4,0,12.2,2.5,12.2,9L205.4,174.2L205.4,174.2z"/>
<path class="st0" d="M216.7,135.6c3.5,0,4.1,0.6,4.1,3.4c0,3.2-0.8,3.7-4.1,3.7s-4.2-0.5-4.2-3.3
	C212.5,136.1,213.4,135.6,216.7,135.6z M220.3,174.3c0,1.6-1.9,2-3.6,2s-3.6-0.3-3.6-2v-25.7c0-1.7,1.9-2,3.6-2s3.6,0.3,3.6,2V174.3
	L220.3,174.3z"/>
<path class="st0" d="M241.2,171.1c1.2,0,2.4-0.1,3.5-0.3c1.1-0.1,1.7,0.7,1.7,2.2s-0.3,2.2-1,2.6c-1.7,0.7-3.5,1-5.4,0.9
	c-7.4,0-12.8-2.7-12.8-14.8c0-13,6.2-15.3,12.8-15.3c2,0,4.1,0.2,5.3,0.9c0.7,0.6,1.1,1.5,1,2.4c0,1.3-0.4,2.4-1.7,2.3
	c-1.2-0.2-2.4-0.2-3.6-0.3c-4.5,0-6.3,1.7-6.3,9.9C234.8,168.6,236.5,171.1,241.2,171.1z"/>
<path class="st0" d="M272.7,172.9c0,3.6-5.8,3.5-11.6,3.5c-8.5,0-11.4-2-11.4-7.9c0-5.6,1.6-8.1,9.4-8.9l4.6-0.5
	c1.6-0.2,2-0.5,2-2.9s-0.4-4-5.4-4c-2.1,0-4.2,0.2-6.2,0.6c-0.1,0-0.2,0.1-0.4,0.1c-0.9,0-1.8-0.6-1.8-2.5c0-3.1,4.2-3.9,9.1-3.9
	c8.6,0,11.6,2.4,11.6,9.4L272.7,172.9L272.7,172.9z M265.8,165.4c0-1.6-0.7-2.2-2.9-2.2h-2.2c-3,0-4,1-4,4.5c0,3.8,0.8,4.2,5.2,4.2
	c3,0,3.9-0.6,3.9-3.2V165.4L265.8,165.4z"/>
<path class="st0" d="M289.1,167.1c0,3,0.6,4.1,2.8,4.1h0.9c1.1,0,1.3,0.8,1.3,2s-0.3,2.1-0.9,2.5c-1.3,0.5-2.6,0.8-4,0.7
	c-5.3,0-7.1-2.5-7.1-7.6v-14.9c0-1.1-0.1-1.5-1.4-1.5h-2.1c-1.2,0-1.5-1.2-1.5-2.8s0.3-2.7,1.5-2.7h2.1c1.4,0,1.5-0.3,1.5-1.4v-4.8
	c0-1.8,1.8-2.1,3.5-2.1s3.5,0.3,3.5,2v5c0,1.1,0.1,1.4,1.5,1.4h2.8c1.2,0,1.5,1.1,1.5,2.7c0,1.7-0.3,2.8-1.5,2.8h-2.8
	c-1.1,0-1.5,0.2-1.5,1.4L289.1,167.1L289.1,167.1z"/>
<path class="st0" d="M303.6,135.6c3.5,0,4.1,0.6,4.1,3.4c0,3.2-0.8,3.7-4.1,3.7s-4.2-0.5-4.2-3.3
	C299.3,136.1,300.2,135.6,303.6,135.6z M307.2,174.3c0,1.6-1.9,2-3.6,2s-3.6-0.3-3.6-2v-25.7c0-1.7,1.9-2,3.6-2s3.6,0.3,3.6,2V174.3
	L307.2,174.3z"/>
<path class="st0" d="M327.2,146.4c8.4,0,12.8,4.3,12.8,14.5c0,12.4-5.2,15.6-12.8,15.6s-12.9-3.2-12.9-14.6S318.5,146.4,327.2,146.4
	z M327.1,151.6c-4.6,0-5.6,1.6-5.6,9.7c0,8.6,1.5,9.9,5.6,9.9c4.4,0,5.5-1.3,5.5-9.9C332.6,153.1,331.1,151.6,327.1,151.6z"/>
<path class="st0" d="M370.7,174.2c0,1.6-1.7,2-3.5,2s-3.6-0.3-3.6-2v-16.8c0-4.6-1.4-5.6-5.2-5.6c-1.2-0.1-2.4,0.1-3.5,0.5
	c-0.9,0.4-0.9,1-0.9,2v19.9c0,1.6-1.9,2-3.5,2s-3.6-0.3-3.6-2v-23.6c0-2.2,0.6-2.9,2.5-3.3c3-0.6,6.1-0.9,9.2-0.9
	c9.4,0,12.2,2.5,12.2,9L370.7,174.2L370.7,174.2z"/>
<path class="st0" d="M387,146.4c3.6,0,5.8,0.3,6.9,0.9c0.8,0.5,1.3,1.4,1.2,2.4c0,1.6-0.6,2.6-2.3,2.4c-1.6-0.2-3.1-0.3-4.7-0.3
	c-3,0-4,0.7-4,2.4c0,1.4,1.3,2.7,5,5c4.6,2.9,6.2,5.3,6.2,9.1c0,6.4-4.6,8.2-11,8.2c-2.2,0.1-4.3-0.2-6.4-0.9
	c-1-0.4-1.6-1.5-1.5-2.6c0-1.4,0.6-2.6,2.2-2.3c1.6,0.2,3.3,0.4,4.9,0.4c2.5,0,4.5-0.4,4.5-2.8c0-1.6-0.9-3-5.2-5.9
	c-4.4-2.9-6-5-6-8.2C376.9,147.7,381.6,146.4,387,146.4z"/>
<path class="st0" d="M11.5,195.7c3.6,0,5.8,0.3,6.8,0.9c0.8,0.5,1.3,1.4,1.2,2.4c0,1.6-0.6,2.6-2.3,2.4c-1.6-0.2-3.1-0.3-4.7-0.3
	c-3,0-4,0.7-4,2.4c0,1.4,1.3,2.7,5,5c4.6,2.9,6.2,5.3,6.2,9.1c0,6.4-4.6,8.2-11,8.2c-2.2,0.1-4.3-0.2-6.4-0.9
	c-1-0.4-1.6-1.5-1.5-2.6c0-1.4,0.6-2.6,2.2-2.3c1.6,0.2,3.3,0.4,4.9,0.4c2.5,0,4.5-0.4,4.5-2.8c0-1.6-0.9-3-5.2-5.9
	c-4.4-2.9-6-5-6-8.2C1.4,197.1,6.1,195.7,11.5,195.7z"/>
<path class="st0" d="M34,212.9c-1.6,0.1-1.9,0.5-1.9,1.9c0,4,2.2,5.7,8.1,5.7c2,0,3.9-0.2,5.9-0.5c1-0.3,2,0.3,2.2,1.3
	c0.1,0.2,0.1,0.5,0,0.7c0.1,1-0.4,2-1.2,2.7c-1.4,0.8-4.1,1.2-7.8,1.2c-10.1,0-14.2-3.8-14.2-13.4v-3c0-10.9,5.4-13.7,12.8-13.7
	c8.4,0,11.2,4.2,11.2,11.1c0,4.7-0.8,5.4-6,5.7L34,212.9z M32,206.8c0,1.5,0.7,1.9,2.7,1.9h5.2c2.1,0,2.8-0.3,2.8-2.3
	c0-3.9-1.1-5.6-5-5.6c-4.2,0-5.7,2.1-5.7,5.4V206.8z"/>
<path class="st0" d="M68.7,220.4c1.2,0,2.4-0.1,3.5-0.3c1.1-0.1,1.7,0.7,1.7,2.2s-0.3,2.2-1,2.6c-1.7,0.7-3.5,1-5.4,0.9
	c-7.4,0-12.8-2.7-12.8-14.8c0-13,6.2-15.3,12.8-15.3c2,0,4.1,0.2,5.3,0.9c0.7,0.6,1.1,1.5,1,2.4c0,1.3-0.4,2.4-1.7,2.3
	c-1.2-0.1-2.4-0.2-3.5-0.2c-4.5,0-6.3,1.7-6.3,9.9C62.2,218,64,220.4,68.7,220.4z"/>
<path class="st0" d="M85.4,214.6c0,4.6,1.4,5.8,5.2,5.8c3.4,0,4.5-0.3,4.5-2.2V198c0-1.6,1.8-2,3.5-2s3.6,0.3,3.6,2v23.7
	c0,2.2-0.7,2.8-2.4,3.3c-2.9,0.6-5.9,0.9-8.9,0.9c-9.8,0-12.6-2.8-12.6-9.2V198c0-1.6,1.8-2,3.5-2s3.6,0.3,3.6,2L85.4,214.6
	L85.4,214.6z"/>
<path class="st0" d="M124.3,201.4c-1,0-2.1-0.2-3.6-0.2c-3.3,0-3.6,0.5-3.6,2.5v19.9c0,1.6-1.8,2-3.5,2s-3.6-0.3-3.6-2V200
	c0-2.2,1.2-2.9,3-3.3c3-0.6,6.1-0.9,9.2-0.9c3,0,3.9,0.5,3.9,3C126,200.2,125.6,201.4,124.3,201.4z"/>
<path class="st0" d="M133.4,184.9c3.5,0,4.1,0.6,4.1,3.4c0,3.2-0.8,3.7-4.1,3.7s-4.2-0.5-4.2-3.3C129.1,185.5,130,184.9,133.4,184.9
	z M136.9,223.6c0,1.6-1.9,2-3.6,2s-3.6-0.3-3.6-2V198c0-1.7,1.9-2,3.6-2s3.6,0.3,3.6,2V223.6z"/>
<path class="st0" d="M153.7,216.5c0,3,0.6,4.1,2.8,4.1h0.9c1.1,0,1.3,0.8,1.3,2s-0.3,2.1-0.9,2.5c-1.3,0.5-2.6,0.8-4,0.7
	c-5.3,0-7.1-2.5-7.1-7.6v-14.9c0-1.1-0.1-1.5-1.4-1.5h-2.1c-1.2,0-1.5-1.2-1.5-2.8s0.3-2.7,1.5-2.7h2.1c1.4,0,1.5-0.3,1.5-1.4V190
	c0-1.8,1.8-2.1,3.5-2.1s3.5,0.3,3.5,2v5c0,1.1,0.1,1.4,1.5,1.4h2.8c1.2,0,1.5,1.1,1.5,2.7c0,1.7-0.3,2.8-1.5,2.8h-2.8
	c-1.1,0-1.5,0.2-1.5,1.4L153.7,216.5L153.7,216.5z"/>
<path class="st0" d="M178.6,227c-2.2,5.1-5.4,8.1-11.2,8.1c-3.3,0-4.3-1.1-4.3-3.3c0-1.2,0.3-2,1.4-2h2c3.9,0,5.5-2.4,5.5-4.5
	c0-1.5-1.4-1.3-2.7-2.9c-2.1-1.7-7.4-21.4-7.4-24.1c0-1.5,2.1-2.3,4-2.3c1.7,0,2.8,0.3,3.1,1.9c1.2,5.8,3.2,14.9,4.5,19.4
	c0.3,1,0.6,1.1,1.1,1.1s0.7-0.1,1-1.1c1.1-3.7,2.9-12.3,4.3-18.6c0.4-2,1-2.6,3-2.6c2.4,0,4,0.7,4,2.2
	C186.8,201.8,181.1,221.2,178.6,227z"/>
<path class="st0" d="M27.1,50.1c9,0,14.4,0.8,17.1,2.3s3,3.5,3,6c0,3.9-1.6,6.5-5.7,6c-3.9-0.4-7.8-0.6-11.7-0.7
	c-7.5,0-9.9,1.8-9.9,6.1c0,3.4,3.3,6.7,12.5,12.5c11.4,7.3,15.5,13.2,15.5,22.7c0,15.9-11.5,20.5-27.4,20.5c-7.5,0-12.9-0.8-16-2.2
	c-2.6-1.1-3.7-3.3-3.7-6.4c0-3.5,1.6-6.4,5.4-5.8c4.1,0.6,8.2,1,12.4,1c6.2,0,11.1-1,11.1-7.1c0-4.1-2.3-7.5-12.9-14.7
	c-11-7.3-15-12.5-15-20.5C1.8,53.6,13.8,50.1,27.1,50.1z"/>
<path class="st0" d="M85.7,50.1c9,0,14.4,0.8,17.1,2.3s3,3.5,3,6c0,3.9-1.6,6.5-5.7,6c-3.9-0.4-7.8-0.6-11.7-0.7
	c-7.5,0-9.9,1.8-9.9,6.1c0,3.4,3.3,6.7,12.5,12.5c11.4,7.3,15.5,13.2,15.5,22.7c0,15.9-11.5,20.5-27.4,20.5c-7.5,0-12.9-0.8-16-2.2
	c-2.6-1.1-3.7-3.3-3.7-6.4c0-3.5,1.6-6.4,5.4-5.8c4.1,0.6,8.2,1,12.3,1c6.2,0,11.1-1,11.1-7.1c0-4.1-2.3-7.5-12.9-14.7
	c-11-7.3-14.9-12.5-14.9-20.5C60.4,53.6,72.3,50.1,85.7,50.1z"/>
<path class="st0" d="M181.8,119.8c0,4.1-4.5,4.9-8.7,4.9s-9.1-0.8-9.1-4.9v-42c0-11.4-3.4-14-12.9-14c-4.1,0-7.1,0.4-8.8,1.2
	c-2.2,1-2.3,2.6-2.3,5v49.7c0,4.1-4.5,4.9-8.7,4.9s-9-0.8-9-4.9V29.2c0-4.2,4.6-4.9,8.7-4.9c4.1,0,9,0.7,9,5.2v16
	c0,3.8,1.1,5.4,4.1,5.4c5.6,0,8.4-0.5,14.7-0.5c17.2,0,23.1,6.7,23.1,21.9L181.8,119.8L181.8,119.8z"/>
<g>
	<path class="st0" d="M380.2,112.8c0-1.3,0.4-2.6,1-3.6c0.6-1.2,1.6-2.1,2.7-2.7c1.2-0.6,2.3-1,3.8-1c1.3,0,2.6,0.4,3.6,1
		c1.2,0.6,2.1,1.6,2.7,2.7c0.6,1.2,1,2.3,1,3.8c0,1.3-0.3,2.5-0.9,3.6c-0.6,1.2-1.6,2.1-2.7,2.7c-1.2,0.6-2.3,1-3.8,1
		c-1.3,0-2.6-0.4-3.8-1c-1.2-0.6-2.1-1.6-2.7-2.7C380.6,115.4,380.2,114.1,380.2,112.8z M381.2,112.8c0,1.2,0.3,2.2,0.9,3.1
		c0.5,1,1.3,1.7,2.3,2.3c1,0.5,2.1,0.9,3.1,0.9c1.2,0,2.2-0.3,3.1-0.9c0.9-0.6,1.7-1.3,2.3-2.3c0.5-1,0.9-2.1,0.9-3.1
		c0-1.2-0.3-2.2-0.9-3.1c-0.5-1-1.3-1.7-2.3-2.3c-1-0.5-2.1-0.9-3.1-0.9c-1.2,0-2.2,0.3-3.1,0.9c-1,0.5-1.7,1.3-2.3,2.3
		C381.5,110.6,381.2,111.6,381.2,112.8z M390.6,111c0,0.5-0.1,1-0.4,1.4c-0.3,0.4-0.6,0.6-1.2,0.9l2.3,3.9h-1.7l-2.1-3.5h-1.3v3.5
		h-1.6v-8.8h2.6c1,0,1.9,0.3,2.5,0.6C390.3,109.4,390.6,110.1,390.6,111z M386.3,112.4h1c0.5,0,0.9-0.1,1.2-0.4
		c0.3-0.3,0.4-0.6,0.4-1c0-0.5-0.1-0.8-0.4-1c-0.3-0.3-0.6-0.3-1.3-0.3h-1v2.7H386.3z"/>
</g>
</svg>
